<svg xmlns="http://www.w3.org/2000/svg" viewBox="0 0 100 100">
  <path d="M 50,0 C 48.115043,0.22071533 47.947485,2.5854588 47.028768,3.8841202 43.627964,10.754409 40.112887,17.581087 36.7832,24.478516 c -0.679562,1.821295 1.911714,2.930961 3.022939,1.51794 2.842641,-2.030721 5.685281,-4.061442 8.527922,-6.092163 0,13.73047 0,27.46094 0,41.19141 -3.790785,4.91832 -7.676419,9.777137 -11.408283,14.732422 -0.564063,2.193509 -0.116889,4.571476 -0.25977,6.840593 0.06022,5.363847 -0.12024,10.752268 0.08984,16.100813 0.72041,2.202869 3.254785,0.839618 3.911079,-0.719279 C 43.777952,94.049778 46.888976,90.049303 50,86.048828 c 3.479963,4.449745 6.917357,8.941903 10.423832,13.365234 1.636649,1.695918 3.454957,-0.598006 2.910204,-2.322021 -0.02742,-6.873681 0.05479,-13.758531 -0.04102,-20.625244 -0.899873,-2.07979 -2.715752,-3.68213 -3.996302,-5.562116 -2.543566,-3.269659 -5.087132,-6.539319 -7.630698,-9.808978 0,-13.730469 0,-27.460937 0,-41.191406 3.191914,2.203111 6.255953,4.623024 9.527342,6.691409 1.803265,0.545667 2.744137,-1.858366 1.594723,-3.080403 C 58.972082,15.940324 55.243507,8.3100878 51.373047,0.76953125 51.098303,0.26963663 50.545149,0.04157802 50,0 Z"/>
</svg>
